<?xml version="1.0" encoding="utf-8"?>
<!-- Generator: Adobe Illustrator 16.0.0, SVG Export Plug-In . SVG Version: 6.00 Build 0)  -->
<!DOCTYPE svg PUBLIC "-//W3C//DTD SVG 1.1//EN" "http://www.w3.org/Graphics/SVG/1.1/DTD/svg11.dtd">
<svg version="1.1" id="Laag_1" xmlns="http://www.w3.org/2000/svg" xmlns:xlink="http://www.w3.org/1999/xlink" x="0px" y="0px"
	 width="127.6px" height="127.6px" viewBox="0 0 127.6 127.6" style="enable-background:new 0 0 127.6 127.6;" xml:space="preserve"
	>
<style type="text/css">
<![CDATA[
	.st0{clip-path:url(#SVGID_2_);}
]]>
</style>
<rect x="8.6" y="10" width="8.5" height="108.8"/>
<rect x="61.8" y="65.1" transform="matrix(9.759585e-003 1 -1 9.759585e-003 179.1364 46.4876)" width="8.5" height="97.2"/>
<g>
	<defs>
		<rect id="SVGID_1_" width="127.6" height="127.6"/>
	</defs>
	<clipPath id="SVGID_2_">
		<use xlink:href="#SVGID_1_"  style="overflow:visible;"/>
	</clipPath>
	<path class="st0" d="M49.7,58.3c-6.9,0-12.4-5.6-12.4-12.4c0-6.9,5.6-12.4,12.4-12.4S62.1,39,62.1,45.8
		C62.1,52.7,56.6,58.3,49.7,58.3 M49.7,41.9c-2.2,0-3.9,1.8-3.9,3.9c0,2.2,1.8,3.9,3.9,3.9s3.9-1.8,3.9-3.9
		C53.6,43.7,51.9,41.9,49.7,41.9"/>
	<path class="st0" d="M78.8,89.7c-6.9,0-12.4-5.6-12.4-12.4c0-6.9,5.6-12.4,12.4-12.4c6.9,0,12.4,5.6,12.4,12.4
		C91.2,84.1,85.6,89.7,78.8,89.7 M78.8,73.4c-2.2,0-3.9,1.8-3.9,3.9s1.8,3.9,3.9,3.9s3.9-1.8,3.9-3.9S80.9,73.4,78.8,73.4"/>
	<path class="st0" d="M106.7,33.4c-6.9,0-12.4-5.6-12.4-12.4c0-6.9,5.6-12.4,12.4-12.4c6.9,0,12.4,5.6,12.4,12.4
		C119.1,27.8,113.5,33.4,106.7,33.4 M106.7,17.1c-2.2,0-3.9,1.8-3.9,3.9s1.8,3.9,3.9,3.9s3.9-1.8,3.9-3.9S108.8,17.1,106.7,17.1"/>
	<rect x="88.5" y="31" transform="matrix(0.8867 0.4623 -0.4623 0.8867 33.2688 -37.2867)" class="st0" width="8.5" height="36.6"/>
	
		<rect x="54.8" y="56.3" transform="matrix(0.6395 0.7688 -0.7688 0.6395 69.4164 -26.8515)" class="st0" width="17.1" height="8.5"/>
	<rect x="30.3" y="54.8" transform="matrix(0.911 0.4123 -0.4123 0.911 36.2749 -7.0635)" class="st0" width="8.5" height="51.4"/>
</g>
</svg>
