<?xml version="1.0" encoding="utf-8"?>
<!-- Generator: Adobe Illustrator 16.0.0, SVG Export Plug-In . SVG Version: 6.00 Build 0)  -->
<!DOCTYPE svg PUBLIC "-//W3C//DTD SVG 1.1//EN" "http://www.w3.org/Graphics/SVG/1.1/DTD/svg11.dtd">
<svg version="1.1" id="Laag_1" xmlns="http://www.w3.org/2000/svg" xmlns:xlink="http://www.w3.org/1999/xlink" x="0px" y="0px"
	 width="127.6px" height="127.6px" viewBox="0 0 127.6 127.6" style="enable-background:new 0 0 127.6 127.6;" xml:space="preserve"
	>
<style type="text/css">
<![CDATA[
	.st0{clip-path:url(#SVGID_2_);}
]]>
</style>
<g>
	<defs>
		<rect id="SVGID_1_" width="127.6" height="127.6"/>
	</defs>
	<clipPath id="SVGID_2_">
		<use xlink:href="#SVGID_1_"  style="overflow:visible;"/>
	</clipPath>
	<path class="st0" d="M63.8,82.9C47.4,82.9,34,69.4,34,52.8c0-16.6,13.3-30.1,29.8-30.1c16.4,0,29.8,13.5,29.8,30.1
		C93.5,69.4,80.2,82.9,63.8,82.9 M63.8,31.2c-11.7,0-21.3,9.7-21.3,21.6c0,11.9,9.5,21.6,21.3,21.6c11.7,0,21.3-9.7,21.3-21.6
		C85,40.9,75.5,31.2,63.8,31.2"/>
	<rect x="49" y="87.1" class="st0" width="29.5" height="8.5"/>
	<rect x="49" y="99.2" class="st0" width="29.5" height="8.5"/>
	<rect x="56.4" y="110.4" class="st0" width="14.7" height="8.5"/>
	<rect x="54.7" y="48.6" class="st0" width="18.2" height="8.5"/>
	<rect x="59.5" y="8.5" class="st0" width="8.5" height="8.8"/>
	<rect x="103.3" y="48.6" class="st0" width="8.7" height="8.5"/>
	<rect x="15.5" y="48.6" class="st0" width="8.7" height="8.5"/>
	<rect x="90.6" y="16.9" transform="matrix(0.7123 0.7019 -0.7019 0.7123 42.245 -60.4144)" class="st0" width="8.5" height="8.8"/>
	<rect x="28.5" y="79.9" transform="matrix(0.7122 0.7019 -0.7019 0.7122 68.5908 1.2665)" class="st0" width="8.5" height="8.8"/>
	<rect x="90.4" y="80" transform="matrix(0.702 0.7122 -0.7122 0.702 88.287 -42.4036)" class="st0" width="8.8" height="8.5"/>
	
		<rect x="28.4" y="17.1" transform="matrix(0.7019 0.7123 -0.7123 0.7019 24.9471 -16.9719)" class="st0" width="8.8" height="8.5"/>
</g>
</svg>
