<?xml version="1.0" encoding="utf-8"?>
<!-- Generator: Adobe Illustrator 16.0.0, SVG Export Plug-In . SVG Version: 6.00 Build 0)  -->
<!DOCTYPE svg PUBLIC "-//W3C//DTD SVG 1.1//EN" "http://www.w3.org/Graphics/SVG/1.1/DTD/svg11.dtd">
<svg version="1.1" id="Laag_1" xmlns="http://www.w3.org/2000/svg" xmlns:xlink="http://www.w3.org/1999/xlink" x="0px" y="0px"
	 width="127.6px" height="127.6px" viewBox="0 0 127.6 127.6" style="enable-background:new 0 0 127.6 127.6;" xml:space="preserve"
	>
<style type="text/css">
<![CDATA[
	.st0{clip-path:url(#SVGID_2_);}
]]>
</style>
<rect x="58.5" y="-38.5" transform="matrix(1.010516e-002 0.9999 -0.9999 1.010516e-002 75.5929 -49.4652)" width="8.5" height="103.8"/>
<rect x="-21.1" y="46.2" transform="matrix(2.158279e-002 0.9998 -0.9998 2.158279e-002 65.3993 33.9949)" width="72.9" height="8.5"/>
<rect x="108.6" y="21.3" transform="matrix(0.9997 2.250751e-002 -2.250751e-002 0.9997 1.2511 -2.5253)" width="8.5" height="66.1"/>
<rect x="17.7" y="82.1" width="93.8" height="8.5"/>
<g>
	<defs>
		<rect id="SVGID_1_" width="127.6" height="127.6"/>
	</defs>
	<clipPath id="SVGID_2_">
		<use xlink:href="#SVGID_1_"  style="overflow:visible;"/>
	</clipPath>
	<path class="st0" d="M44.9,118.6v-8.5c4.1,0,7.4-3.4,7.4-7.5h8.5C60.7,111.4,53.6,118.6,44.9,118.6"/>
	<path class="st0" d="M89,118.6c-8.7,0-15.9-7.2-15.9-16h8.5c0,4.1,3.3,7.5,7.4,7.5V118.6z"/>
	<rect x="52.2" y="89.5" class="st0" width="8.5" height="13.1"/>
	<rect x="71.6" y="88.4" class="st0" width="8.5" height="10"/>
	<rect x="33.9" y="110.4" class="st0" width="61.3" height="8.5"/>
	
		<rect x="58.1" y="31.1" transform="matrix(1.021995e-002 0.9999 -0.9999 1.021995e-002 132.391 7.5449)" class="st0" width="8.5" height="79.1"/>
</g>
</svg>
